<svg xmlns="http://www.w3.org/2000/svg" viewBox="0 0 400 300" role="img" aria-label="La misma silla reparada y retapizada"><rect width="400" height="300" fill="#efe9df"/><rect y="262" width="400" height="38" fill="#ddd4c4"/><ellipse cx="200" cy="268" rx="130" ry="9" fill="#000" opacity=".12"/><rect x="126" y="214" width="12" height="48" fill="#5e3719"/><rect x="262" y="214" width="12" height="48" fill="#5e3719"/><rect x="128" y="26" width="13" height="150" fill="#7a4a26"/><rect x="259" y="26" width="13" height="150" fill="#7a4a26"/><rect x="141" y="48" width="118" height="17" fill="#7a4a26"/><rect x="141" y="62" width="118" height="3" fill="#5e3719" opacity=".5"/><rect x="141" y="76" width="118" height="17" fill="#7a4a26"/><rect x="141" y="90" width="118" height="3" fill="#5e3719" opacity=".5"/><rect x="141" y="104" width="118" height="17" fill="#7a4a26"/><rect x="141" y="118" width="118" height="3" fill="#5e3719" opacity=".5"/><rect x="98" y="204" width="204" height="14" fill="#7a4a26"/><rect x="96" y="216" width="15" height="48" fill="#7a4a26"/><rect x="289" y="216" width="15" height="48" fill="#7a4a26"/><polygon points="106,172 294,172 312,204 88,204" fill="#7A1020"/><polygon points="88,204 312,204 312,212 88,212" fill="#5e0c19"/><polygon points="106,172 294,172 300,182 100,182" fill="#fff" opacity=".12"/><path d="M114 192 H286" stroke="#e8c9ce" stroke-width="1.5" stroke-dasharray="5 4" fill="none" opacity=".8"/><rect x="128" y="26" width="3" height="150" fill="#fff" opacity=".18"/><rect x="259" y="26" width="3" height="150" fill="#fff" opacity=".18"/></svg>